<svg xmlns="http://www.w3.org/2000/svg" version="1.1" xmlns:xlink="http://www.w3.org/1999/xlink" xmlns:svgjs="http://svgjs.dev/svgjs" width="1500" height="1500" viewBox="0 0 1500 1500"><rect width="1500" height="1500" fill="#ffffff"></rect><g transform="matrix(0.6666666666666666,0,0,0.6666666666666666,249.39393939393938,618.8980062841796)"><svg viewBox="0 0 396 104" data-background-color="#182524" preserveAspectRatio="xMidYMid meet" height="393" width="1500" xmlns="http://www.w3.org/2000/svg" xmlns:xlink="http://www.w3.org/1999/xlink"><g id="tight-bounds" transform="matrix(1,0,0,1,0.2400000000000091,0.04048605513480652)"><svg viewBox="0 0 395.52 103.91902788973039" height="103.91902788973039" width="395.52"><g><svg viewBox="0 0 561.6473429266878 147.56736927030602" height="103.91902788973039" width="395.52"><g transform="matrix(1,0,0,1,166.1273429266879,45.600459029670574)"><svg viewBox="0 0 395.5199999999999 56.36645121096487" height="56.36645121096487" width="395.5199999999999"><g id="textblocktransform"><svg viewBox="0 0 395.5199999999999 56.36645121096487" height="56.36645121096487" width="395.5199999999999" id="textblock"><g><svg viewBox="0 0 395.5199999999999 56.36645121096487" height="56.36645121096487" width="395.5199999999999"><g transform="matrix(1,0,0,1,0,0)"><svg width="395.5199999999999" viewBox="2.86 -36.04 313.46999999999997 44.68" height="56.36645121096487" data-palette-color="#e2f1e6"><path d="M22.09 0L2.88-32.4 14.36-32.4 23.05-17.99 29.88-29.71 29.88-13.4 22.09 0ZM42.26 0L31.47 0 31.47-32.4 42.26-32.4 42.26 0ZM12.94 0L2.86 0 2.86-29.39 12.94-12.48 12.94 0ZM76.56-19.46L76.56-6.47 70.09 0 62.86 0 62.86-6.05 65.55-6.05 65.55-19.46 62.86-19.46 62.86-25.93 70.09-25.93 76.56-19.46ZM58.35-19.46L58.35-6.05 61.15-6.05 61.15 0 53.9 0 47.43-6.47 47.43-19.46 53.9-25.93 61.15-25.93 61.15-19.46 58.35-19.46ZM92.5-32.4L92.5-6.47 99.63-6.47 99.63 0 88.2 0 81.71-6.47 81.71-19.46 79.56-19.46 79.56-25.93 81.71-25.93 81.71-28.74 92.5-32.4ZM100.02-19.46L94.21-19.46 94.21-25.93 100.02-25.93 100.02-19.46ZM103.78 0L103.78-25.93 114.59-25.93 114.59 0 103.78 0ZM103.78-29.15L103.78-36.04 114.59-36.04 114.59-29.15 103.78-29.15ZM148.6-19.46L148.6-6.47 142.13 0 134.9 0 134.9-6.05 137.59-6.05 137.59-19.46 134.9-19.46 134.9-25.93 142.13-25.93 148.6-19.46ZM130.39-19.46L130.39-6.05 133.19-6.05 133.19 0 125.94 0 119.47-6.47 119.47-19.46 125.94-25.93 133.19-25.93 133.19-19.46 130.39-19.46ZM164.34 0L153.45 0 153.45-25.93 164.34-25.93 164.34 0ZM170.74 0L170.74-19.46 166.1-19.46 166.1-22.29 169.71-25.93 175.72-25.93 181.55-20.09 181.55 0 170.74 0ZM197.67 0L186.87 0 186.87-32.4 197.67-32.4 197.67 0ZM207.48-25.93L199.37-25.93 199.37-32.4 211.7-32.4 218.2-25.93 218.2-16.21 213.22-11.23 212.88-11.91 202.74-10.57 203.13-9.72 199.37-9.72 199.37-15.99 207.48-15.99 207.48-25.93ZM213.22-11.23L219.3 0 207.77 0 203.13-9.72 211.7-9.72 213.22-11.23ZM222.83 0L222.83-35.82 233.63-35.82 233.63 0 222.83 0ZM240.09 0L240.09-19.46 235.33-19.46 235.33-22.73 238.51-25.93 244.42-25.93 250.91-19.46 250.91 0 240.09 0ZM283.4 0L272.86 0 272.86-19.46 257.5-19.46 257.5-22.68 260.75-25.93 276.93-25.93 283.4-19.46 283.4 0ZM259.67-15.09L271.15-15.09 271.15-10.6 265.58-10.6 265.58-6.05 271.15-6.05 271.15-3.2 267.92 0 259.67 0 255.33-4.27 255.33-10.77 259.67-15.09ZM299.05 8.64L288.26 8.64 288.26-25.93 299.05-25.93 299.05 8.64ZM305.52-6.05L305.52-19.46 300.76-19.46 300.76-22.73 303.93-25.93 309.84-25.93 316.33-19.46 316.33-6.47 309.84 0 300.76 0 300.76-6.05 305.52-6.05Z" opacity="1" transform="matrix(1,0,0,1,0,0)" fill="#000000" class="wordmark-text-0" data-fill-palette-color="primary" id="text-0"></path></svg></g></svg></g></svg></g></svg></g><g><svg viewBox="0 0 152.82057659060817 147.56736927030602" height="147.56736927030602" width="152.82057659060817"><g><svg xmlns="http://www.w3.org/2000/svg" xmlns:xlink="http://www.w3.org/1999/xlink" version="1.1" x="0" y="0" viewBox="1 2.1 64 61.800000000000004" enable-background="new 0 0 66 66" xml:space="preserve" height="147.56736927030602" width="152.82057659060817" class="icon-icon-0" data-fill-palette-color="accent" id="icon-0"><g fill="#f2e2de" data-fill-palette-color="accent"><g fill="#f2e2de" data-fill-palette-color="accent"><path d="M38.8 43.9l-8.9-4.7c-0.3-0.2-0.7-0.2-1 0-0.3 0.2-0.5 0.5-0.5 0.9v9.4c0 0.4 0.2 0.7 0.5 0.9 0.3 0.2 0.7 0.2 1 0l8.9-4.7c0.3-0.2 0.5-0.5 0.5-0.9C39.3 44.4 39.1 44.1 38.8 43.9zM30.4 47.8v-6.1l5.7 3.1L30.4 47.8z" fill="#000000" data-fill-palette-color="accent"></path></g><g fill="#f2e2de" data-fill-palette-color="accent"><path d="M65 14.9C65 7.7 50.9 2.1 33 2.1 15.1 2.1 1 7.7 1 14.9v36.2c0 7.2 14.1 12.8 32 12.8 17.9 0 32-5.6 32-12.8C65 43.1 65 28.1 65 14.9zM33 4.1c17.9 0 30 5.6 30 10.8S50.9 25.7 33 25.7c-17.9 0-30-5.6-30-10.8S15.1 4.1 33 4.1zM51.8 31.6v-6.3c1.9-0.5 3.6-1.2 5.1-1.8v6.2C55.5 30.4 53.8 31.1 51.8 31.6zM14.2 25.3v6.3c-1.9-0.6-3.7-1.2-5.1-2v-6.2C10.6 24.1 12.3 24.7 14.2 25.3zM16.2 25.8c1.6 0.4 3.3 0.7 5.1 1v6.4c-1.8-0.3-3.5-0.6-5.1-1V25.8zM23.3 27.1c1.7 0.2 3.4 0.4 5.1 0.5V34c-1.8-0.1-3.5-0.3-5.1-0.5V27.1zM30.4 27.6c0.8 0 1.7 0 2.6 0 0.9 0 1.7 0 2.6 0V34c-0.8 0-1.7 0-2.6 0-0.9 0-1.7 0-2.6 0V27.6zM37.6 27.5c1.8-0.1 3.5-0.2 5.1-0.4v6.4c-1.6 0.2-3.3 0.4-5.1 0.5V27.5zM44.7 26.8c1.8-0.3 3.5-0.6 5.1-1v6.4c-1.6 0.4-3.3 0.7-5.1 1V26.8zM3 19.4c1 1.1 2.4 2.1 4 3v6.1c-2.6-1.6-4-3.5-4-5.3V19.4zM3 51.1v-3.9c1 1.1 2.4 2.1 4 3v6.1C4.4 54.7 3 52.9 3 51.1zM28.4 55.3v6.4c-1.8-0.1-3.5-0.3-5.1-0.5v-6.4C25 55.1 26.7 55.2 28.4 55.3zM21.3 61c-1.8-0.3-3.5-0.6-5.1-1v-6.4c1.6 0.4 3.3 0.7 5.1 1V61zM14.2 59.4c-1.9-0.6-3.7-1.2-5.1-2v-6.2c1.5 0.7 3.3 1.3 5.1 1.8V59.4zM30.4 61.8v-6.4c0.8 0 1.7 0 2.6 0 0.9 0 1.7 0 2.6 0v6.4c-0.8 0-1.7 0-2.6 0C32.1 61.9 31.3 61.9 30.4 61.8zM57 51.2v6.2c-1.5 0.7-3.2 1.4-5.1 2v-6.4C53.7 52.5 55.4 51.9 57 51.2zM49.8 60c-1.6 0.4-3.3 0.7-5.1 1v-6.4c1.8-0.3 3.5-0.6 5.1-1V60zM42.7 61.3c-1.6 0.2-3.3 0.4-5.1 0.5v-6.4c1.8-0.1 3.5-0.2 5.1-0.4V61.3zM63 51.1c0 1.8-1.4 3.6-4 5.3v-6.1c1.7-0.9 3-1.9 4-3V51.1zM63 42.7c0 5.2-12.1 10.8-30 10.8-17.9 0-30-5.6-30-10.8V27.8c4.5 4.9 16.1 8.2 30 8.2 13.9 0 25.5-3.4 30-8.2V42.7zM63 23.3c0 1.8-1.4 3.6-4 5.3v-6.1c1.7-0.9 3-1.9 4-3V23.3z" fill="#000000" data-fill-palette-color="accent"></path></g></g></svg></g></svg></g></svg></g><defs></defs></svg><rect width="395.52" height="103.91902788973039" fill="none" stroke="none" visibility="hidden"></rect></g></svg></g></svg>